<svg xmlns="http://www.w3.org/2000/svg" viewBox="0 0 1000 700" width="1000" height="700" role="img" aria-labelledby="title description">
<title id="title">Fourier superposition</title>
<desc id="description">Odd sinusoidal harmonics and their Fourier partial sum, illustrating the approximation of a square wave.</desc>
<defs><pattern id="grid" width="50" height="50" patternUnits="userSpaceOnUse"><path d="M50 0H0V50" fill="none" stroke="#b28f98" stroke-opacity=".09" stroke-width="1"/></pattern></defs>
<rect width="1000" height="700" fill="#1b191e"/>
<rect width="1000" height="700" fill="url(#grid)"/>
<polyline points="245.0,130.0 755.0,130.0" fill="none" stroke="#8b4657" stroke-width="1" stroke-opacity="0.5" stroke-linecap="round" stroke-linejoin="round"/>
<polyline points="245.0,130.0 246.0,130.4 247.0,130.7 248.1,131.1 249.1,131.5 250.1,131.8 251.1,132.2 252.1,132.5 253.2,132.9 254.2,133.3 255.2,133.6 256.2,134.0 257.2,134.4 258.3,134.7 259.3,135.1 260.3,135.4 261.3,135.8 262.3,136.1 263.4,136.5 264.4,136.9 265.4,137.2 266.4,137.6 267.4,137.9 268.5,138.3 269.5,138.6 270.5,139.0 271.5,139.3 272.5,139.7 273.6,140.0 274.6,140.3 275.6,140.7 276.6,141.0 277.6,141.3 278.7,141.7 279.7,142.0 280.7,142.3 281.7,142.7 282.7,143.0 283.8,143.3 284.8,143.7 285.8,144.0 286.8,144.3 287.8,144.6 288.9,144.9 289.9,145.2 290.9,145.5 291.9,145.8 292.9,146.1 294.0,146.5 295.0,146.7 296.0,147.0 297.0,147.3 298.0,147.6 299.1,147.9 300.1,148.2 301.1,148.5 302.1,148.8 303.1,149.0 304.2,149.3 305.2,149.6 306.2,149.9 307.2,150.1 308.2,150.4 309.3,150.6 310.3,150.9 311.3,151.1 312.3,151.4 313.3,151.6 314.4,151.9 315.4,152.1 316.4,152.3 317.4,152.6 318.4,152.8 319.5,153.0 320.5,153.2 321.5,153.5 322.5,153.7 323.5,153.9 324.6,154.1 325.6,154.3 326.6,154.5 327.6,154.7 328.6,154.9 329.7,155.1 330.7,155.2 331.7,155.4 332.7,155.6 333.7,155.8 334.8,155.9 335.8,156.1 336.8,156.2 337.8,156.4 338.8,156.5 339.9,156.7 340.9,156.8 341.9,157.0 342.9,157.1 343.9,157.2 345.0,157.3 346.0,157.5 347.0,157.6 348.0,157.7 349.0,157.8 350.1,157.9 351.1,158.0 352.1,158.1 353.1,158.2 354.1,158.3 355.2,158.3 356.2,158.4 357.2,158.5 358.2,158.6 359.2,158.6 360.3,158.7 361.3,158.7 362.3,158.8 363.3,158.8 364.3,158.9 365.4,158.9 366.4,158.9 367.4,158.9 368.4,159.0 369.4,159.0 370.5,159.0 371.5,159.0 372.5,159.0 373.5,159.0 374.5,159.0 375.6,159.0 376.6,159.0 377.6,158.9 378.6,158.9 379.6,158.9 380.7,158.9 381.7,158.8 382.7,158.8 383.7,158.7 384.7,158.7 385.8,158.6 386.8,158.6 387.8,158.5 388.8,158.4 389.8,158.3 390.9,158.3 391.9,158.2 392.9,158.1 393.9,158.0 394.9,157.9 396.0,157.8 397.0,157.7 398.0,157.6 399.0,157.5 400.0,157.3 401.1,157.2 402.1,157.1 403.1,157.0 404.1,156.8 405.1,156.7 406.2,156.5 407.2,156.4 408.2,156.2 409.2,156.1 410.2,155.9 411.3,155.8 412.3,155.6 413.3,155.4 414.3,155.2 415.3,155.1 416.4,154.9 417.4,154.7 418.4,154.5 419.4,154.3 420.4,154.1 421.5,153.9 422.5,153.7 423.5,153.5 424.5,153.2 425.5,153.0 426.6,152.8 427.6,152.6 428.6,152.3 429.6,152.1 430.6,151.9 431.7,151.6 432.7,151.4 433.7,151.1 434.7,150.9 435.7,150.6 436.8,150.4 437.8,150.1 438.8,149.9 439.8,149.6 440.8,149.3 441.9,149.0 442.9,148.8 443.9,148.5 444.9,148.2 445.9,147.9 447.0,147.6 448.0,147.3 449.0,147.0 450.0,146.7 451.0,146.5 452.1,146.1 453.1,145.8 454.1,145.5 455.1,145.2 456.1,144.9 457.2,144.6 458.2,144.3 459.2,144.0 460.2,143.7 461.2,143.3 462.3,143.0 463.3,142.7 464.3,142.3 465.3,142.0 466.3,141.7 467.4,141.3 468.4,141.0 469.4,140.7 470.4,140.3 471.4,140.0 472.5,139.7 473.5,139.3 474.5,139.0 475.5,138.6 476.5,138.3 477.6,137.9 478.6,137.6 479.6,137.2 480.6,136.9 481.6,136.5 482.7,136.1 483.7,135.8 484.7,135.4 485.7,135.1 486.7,134.7 487.8,134.4 488.8,134.0 489.8,133.6 490.8,133.3 491.8,132.9 492.9,132.5 493.9,132.2 494.9,131.8 495.9,131.5 496.9,131.1 498.0,130.7 499.0,130.4 500.0,130.0 501.0,129.6 502.0,129.3 503.1,128.9 504.1,128.5 505.1,128.2 506.1,127.8 507.1,127.5 508.2,127.1 509.2,126.7 510.2,126.4 511.2,126.0 512.2,125.6 513.3,125.3 514.3,124.9 515.3,124.6 516.3,124.2 517.3,123.9 518.4,123.5 519.4,123.1 520.4,122.8 521.4,122.4 522.4,122.1 523.5,121.7 524.5,121.4 525.5,121.0 526.5,120.7 527.5,120.3 528.6,120.0 529.6,119.7 530.6,119.3 531.6,119.0 532.6,118.7 533.7,118.3 534.7,118.0 535.7,117.7 536.7,117.3 537.7,117.0 538.8,116.7 539.8,116.3 540.8,116.0 541.8,115.7 542.8,115.4 543.9,115.1 544.9,114.8 545.9,114.5 546.9,114.2 547.9,113.9 549.0,113.5 550.0,113.3 551.0,113.0 552.0,112.7 553.0,112.4 554.1,112.1 555.1,111.8 556.1,111.5 557.1,111.2 558.1,111.0 559.2,110.7 560.2,110.4 561.2,110.1 562.2,109.9 563.2,109.6 564.3,109.4 565.3,109.1 566.3,108.9 567.3,108.6 568.3,108.4 569.4,108.1 570.4,107.9 571.4,107.7 572.4,107.4 573.4,107.2 574.5,107.0 575.5,106.8 576.5,106.5 577.5,106.3 578.5,106.1 579.6,105.9 580.6,105.7 581.6,105.5 582.6,105.3 583.6,105.1 584.7,104.9 585.7,104.8 586.7,104.6 587.7,104.4 588.7,104.2 589.8,104.1 590.8,103.9 591.8,103.8 592.8,103.6 593.8,103.5 594.9,103.3 595.9,103.2 596.9,103.0 597.9,102.9 598.9,102.8 600.0,102.7 601.0,102.5 602.0,102.4 603.0,102.3 604.0,102.2 605.1,102.1 606.1,102.0 607.1,101.9 608.1,101.8 609.1,101.7 610.2,101.7 611.2,101.6 612.2,101.5 613.2,101.4 614.2,101.4 615.3,101.3 616.3,101.3 617.3,101.2 618.3,101.2 619.3,101.1 620.4,101.1 621.4,101.1 622.4,101.1 623.4,101.0 624.4,101.0 625.5,101.0 626.5,101.0 627.5,101.0 628.5,101.0 629.5,101.0 630.6,101.0 631.6,101.0 632.6,101.1 633.6,101.1 634.6,101.1 635.7,101.1 636.7,101.2 637.7,101.2 638.7,101.3 639.7,101.3 640.8,101.4 641.8,101.4 642.8,101.5 643.8,101.6 644.8,101.7 645.9,101.7 646.9,101.8 647.9,101.9 648.9,102.0 649.9,102.1 651.0,102.2 652.0,102.3 653.0,102.4 654.0,102.5 655.0,102.7 656.1,102.8 657.1,102.9 658.1,103.0 659.1,103.2 660.1,103.3 661.2,103.5 662.2,103.6 663.2,103.8 664.2,103.9 665.2,104.1 666.3,104.2 667.3,104.4 668.3,104.6 669.3,104.8 670.3,104.9 671.4,105.1 672.4,105.3 673.4,105.5 674.4,105.7 675.4,105.9 676.5,106.1 677.5,106.3 678.5,106.5 679.5,106.8 680.5,107.0 681.6,107.2 682.6,107.4 683.6,107.7 684.6,107.9 685.6,108.1 686.7,108.4 687.7,108.6 688.7,108.9 689.7,109.1 690.7,109.4 691.8,109.6 692.8,109.9 693.8,110.1 694.8,110.4 695.8,110.7 696.9,111.0 697.9,111.2 698.9,111.5 699.9,111.8 700.9,112.1 702.0,112.4 703.0,112.7 704.0,113.0 705.0,113.3 706.0,113.5 707.1,113.9 708.1,114.2 709.1,114.5 710.1,114.8 711.1,115.1 712.2,115.4 713.2,115.7 714.2,116.0 715.2,116.3 716.2,116.7 717.3,117.0 718.3,117.3 719.3,117.7 720.3,118.0 721.3,118.3 722.4,118.7 723.4,119.0 724.4,119.3 725.4,119.7 726.4,120.0 727.5,120.3 728.5,120.7 729.5,121.0 730.5,121.4 731.5,121.7 732.6,122.1 733.6,122.4 734.6,122.8 735.6,123.1 736.6,123.5 737.7,123.9 738.7,124.2 739.7,124.6 740.7,124.9 741.7,125.3 742.8,125.6 743.8,126.0 744.8,126.4 745.8,126.7 746.8,127.1 747.9,127.5 748.9,127.8 749.9,128.2 750.9,128.5 751.9,128.9 753.0,129.3 754.0,129.6 755.0,130.0" fill="none" stroke="#ff5470" stroke-width="1.8" stroke-opacity="0.7" stroke-linecap="round" stroke-linejoin="round"/>
<polyline points="245.0,202.0 755.0,202.0" fill="none" stroke="#8b4657" stroke-width="1" stroke-opacity="0.5" stroke-linecap="round" stroke-linejoin="round"/>
<polyline points="245.0,202.0 246.0,202.4 247.0,202.7 248.1,203.1 249.1,203.5 250.1,203.8 251.1,204.2 252.1,204.5 253.2,204.9 254.2,205.2 255.2,205.6 256.2,205.9 257.2,206.2 258.3,206.6 259.3,206.9 260.3,207.2 261.3,207.5 262.3,207.8 263.4,208.1 264.4,208.3 265.4,208.6 266.4,208.9 267.4,209.1 268.5,209.4 269.5,209.6 270.5,209.8 271.5,210.0 272.5,210.2 273.6,210.4 274.6,210.6 275.6,210.7 276.6,210.9 277.6,211.0 278.7,211.2 279.7,211.3 280.7,211.4 281.7,211.4 282.7,211.5 283.8,211.6 284.8,211.6 285.8,211.6 286.8,211.7 287.8,211.7 288.9,211.7 289.9,211.6 290.9,211.6 291.9,211.5 292.9,211.5 294.0,211.4 295.0,211.3 296.0,211.2 297.0,211.1 298.0,210.9 299.1,210.8 300.1,210.6 301.1,210.5 302.1,210.3 303.1,210.1 304.2,209.9 305.2,209.7 306.2,209.4 307.2,209.2 308.2,209.0 309.3,208.7 310.3,208.4 311.3,208.2 312.3,207.9 313.3,207.6 314.4,207.3 315.4,207.0 316.4,206.7 317.4,206.3 318.4,206.0 319.5,205.7 320.5,205.3 321.5,205.0 322.5,204.6 323.5,204.3 324.6,203.9 325.6,203.6 326.6,203.2 327.6,202.8 328.6,202.5 329.7,202.1 330.7,201.8 331.7,201.4 332.7,201.0 333.7,200.7 334.8,200.3 335.8,200.0 336.8,199.6 337.8,199.2 338.8,198.9 339.9,198.6 340.9,198.2 341.9,197.9 342.9,197.6 343.9,197.2 345.0,196.9 346.0,196.6 347.0,196.3 348.0,196.0 349.0,195.7 350.1,195.5 351.1,195.2 352.1,195.0 353.1,194.7 354.1,194.5 355.2,194.3 356.2,194.0 357.2,193.8 358.2,193.6 359.2,193.5 360.3,193.3 361.3,193.2 362.3,193.0 363.3,192.9 364.3,192.8 365.4,192.7 366.4,192.6 367.4,192.5 368.4,192.4 369.4,192.4 370.5,192.4 371.5,192.3 372.5,192.3 373.5,192.3 374.5,192.4 375.6,192.4 376.6,192.4 377.6,192.5 378.6,192.6 379.6,192.7 380.7,192.8 381.7,192.9 382.7,193.0 383.7,193.2 384.7,193.3 385.8,193.5 386.8,193.6 387.8,193.8 388.8,194.0 389.8,194.3 390.9,194.5 391.9,194.7 392.9,195.0 393.9,195.2 394.9,195.5 396.0,195.7 397.0,196.0 398.0,196.3 399.0,196.6 400.0,196.9 401.1,197.2 402.1,197.6 403.1,197.9 404.1,198.2 405.1,198.6 406.2,198.9 407.2,199.2 408.2,199.6 409.2,200.0 410.2,200.3 411.3,200.7 412.3,201.0 413.3,201.4 414.3,201.8 415.3,202.1 416.4,202.5 417.4,202.8 418.4,203.2 419.4,203.6 420.4,203.9 421.5,204.3 422.5,204.6 423.5,205.0 424.5,205.3 425.5,205.7 426.6,206.0 427.6,206.3 428.6,206.7 429.6,207.0 430.6,207.3 431.7,207.6 432.7,207.9 433.7,208.2 434.7,208.4 435.7,208.7 436.8,209.0 437.8,209.2 438.8,209.4 439.8,209.7 440.8,209.9 441.9,210.1 442.9,210.3 443.9,210.5 444.9,210.6 445.9,210.8 447.0,210.9 448.0,211.1 449.0,211.2 450.0,211.3 451.0,211.4 452.1,211.5 453.1,211.5 454.1,211.6 455.1,211.6 456.1,211.7 457.2,211.7 458.2,211.7 459.2,211.6 460.2,211.6 461.2,211.6 462.3,211.5 463.3,211.4 464.3,211.4 465.3,211.3 466.3,211.2 467.4,211.0 468.4,210.9 469.4,210.7 470.4,210.6 471.4,210.4 472.5,210.2 473.5,210.0 474.5,209.8 475.5,209.6 476.5,209.4 477.6,209.1 478.6,208.9 479.6,208.6 480.6,208.3 481.6,208.1 482.7,207.8 483.7,207.5 484.7,207.2 485.7,206.9 486.7,206.6 487.8,206.2 488.8,205.9 489.8,205.6 490.8,205.2 491.8,204.9 492.9,204.5 493.9,204.2 494.9,203.8 495.9,203.5 496.9,203.1 498.0,202.7 499.0,202.4 500.0,202.0 501.0,201.6 502.0,201.3 503.1,200.9 504.1,200.5 505.1,200.2 506.1,199.8 507.1,199.5 508.2,199.1 509.2,198.8 510.2,198.4 511.2,198.1 512.2,197.8 513.3,197.4 514.3,197.1 515.3,196.8 516.3,196.5 517.3,196.2 518.4,195.9 519.4,195.7 520.4,195.4 521.4,195.1 522.4,194.9 523.5,194.6 524.5,194.4 525.5,194.2 526.5,194.0 527.5,193.8 528.6,193.6 529.6,193.4 530.6,193.3 531.6,193.1 532.6,193.0 533.7,192.8 534.7,192.7 535.7,192.6 536.7,192.6 537.7,192.5 538.8,192.4 539.8,192.4 540.8,192.4 541.8,192.3 542.8,192.3 543.9,192.3 544.9,192.4 545.9,192.4 546.9,192.5 547.9,192.5 549.0,192.6 550.0,192.7 551.0,192.8 552.0,192.9 553.0,193.1 554.1,193.2 555.1,193.4 556.1,193.5 557.1,193.7 558.1,193.9 559.2,194.1 560.2,194.3 561.2,194.6 562.2,194.8 563.2,195.0 564.3,195.3 565.3,195.6 566.3,195.8 567.3,196.1 568.3,196.4 569.4,196.7 570.4,197.0 571.4,197.3 572.4,197.7 573.4,198.0 574.5,198.3 575.5,198.7 576.5,199.0 577.5,199.4 578.5,199.7 579.6,200.1 580.6,200.4 581.6,200.8 582.6,201.2 583.6,201.5 584.7,201.9 585.7,202.2 586.7,202.6 587.7,203.0 588.7,203.3 589.8,203.7 590.8,204.0 591.8,204.4 592.8,204.8 593.8,205.1 594.9,205.4 595.9,205.8 596.9,206.1 597.9,206.4 598.9,206.8 600.0,207.1 601.0,207.4 602.0,207.7 603.0,208.0 604.0,208.3 605.1,208.5 606.1,208.8 607.1,209.0 608.1,209.3 609.1,209.5 610.2,209.7 611.2,210.0 612.2,210.2 613.2,210.4 614.2,210.5 615.3,210.7 616.3,210.8 617.3,211.0 618.3,211.1 619.3,211.2 620.4,211.3 621.4,211.4 622.4,211.5 623.4,211.6 624.4,211.6 625.5,211.6 626.5,211.7 627.5,211.7 628.5,211.7 629.5,211.6 630.6,211.6 631.6,211.6 632.6,211.5 633.6,211.4 634.6,211.3 635.7,211.2 636.7,211.1 637.7,211.0 638.7,210.8 639.7,210.7 640.8,210.5 641.8,210.4 642.8,210.2 643.8,210.0 644.8,209.7 645.9,209.5 646.9,209.3 647.9,209.0 648.9,208.8 649.9,208.5 651.0,208.3 652.0,208.0 653.0,207.7 654.0,207.4 655.0,207.1 656.1,206.8 657.1,206.4 658.1,206.1 659.1,205.8 660.1,205.4 661.2,205.1 662.2,204.8 663.2,204.4 664.2,204.0 665.2,203.7 666.3,203.3 667.3,203.0 668.3,202.6 669.3,202.2 670.3,201.9 671.4,201.5 672.4,201.2 673.4,200.8 674.4,200.4 675.4,200.1 676.5,199.7 677.5,199.4 678.5,199.0 679.5,198.7 680.5,198.3 681.6,198.0 682.6,197.7 683.6,197.3 684.6,197.0 685.6,196.7 686.7,196.4 687.7,196.1 688.7,195.8 689.7,195.6 690.7,195.3 691.8,195.0 692.8,194.8 693.8,194.6 694.8,194.3 695.8,194.1 696.9,193.9 697.9,193.7 698.9,193.5 699.9,193.4 700.9,193.2 702.0,193.1 703.0,192.9 704.0,192.8 705.0,192.7 706.0,192.6 707.1,192.5 708.1,192.5 709.1,192.4 710.1,192.4 711.1,192.3 712.2,192.3 713.2,192.3 714.2,192.4 715.2,192.4 716.2,192.4 717.3,192.5 718.3,192.6 719.3,192.6 720.3,192.7 721.3,192.8 722.4,193.0 723.4,193.1 724.4,193.3 725.4,193.4 726.4,193.6 727.5,193.8 728.5,194.0 729.5,194.2 730.5,194.4 731.5,194.6 732.6,194.9 733.6,195.1 734.6,195.4 735.6,195.7 736.6,195.9 737.7,196.2 738.7,196.5 739.7,196.8 740.7,197.1 741.7,197.4 742.8,197.8 743.8,198.1 744.8,198.4 745.8,198.8 746.8,199.1 747.9,199.5 748.9,199.8 749.9,200.2 750.9,200.5 751.9,200.9 753.0,201.3 754.0,201.6 755.0,202.0" fill="none" stroke="#ff5470" stroke-width="1.8" stroke-opacity="0.7" stroke-linecap="round" stroke-linejoin="round"/>
<polyline points="245.0,274.0 755.0,274.0" fill="none" stroke="#8b4657" stroke-width="1" stroke-opacity="0.5" stroke-linecap="round" stroke-linejoin="round"/>
<polyline points="245.0,274.0 246.0,274.4 247.0,274.7 248.1,275.1 249.1,275.4 250.1,275.8 251.1,276.1 252.1,276.5 253.2,276.8 254.2,277.1 255.2,277.4 256.2,277.7 257.2,278.0 258.3,278.2 259.3,278.5 260.3,278.7 261.3,278.9 262.3,279.1 263.4,279.2 264.4,279.4 265.4,279.5 266.4,279.6 267.4,279.7 268.5,279.8 269.5,279.8 270.5,279.8 271.5,279.8 272.5,279.8 273.6,279.7 274.6,279.6 275.6,279.5 276.6,279.4 277.6,279.2 278.7,279.1 279.7,278.9 280.7,278.7 281.7,278.5 282.7,278.2 283.8,278.0 284.8,277.7 285.8,277.4 286.8,277.1 287.8,276.8 288.9,276.5 289.9,276.1 290.9,275.8 291.9,275.4 292.9,275.1 294.0,274.7 295.0,274.4 296.0,274.0 297.0,273.6 298.0,273.3 299.1,272.9 300.1,272.6 301.1,272.2 302.1,271.9 303.1,271.5 304.2,271.2 305.2,270.9 306.2,270.6 307.2,270.3 308.2,270.0 309.3,269.8 310.3,269.5 311.3,269.3 312.3,269.1 313.3,268.9 314.4,268.8 315.4,268.6 316.4,268.5 317.4,268.4 318.4,268.3 319.5,268.2 320.5,268.2 321.5,268.2 322.5,268.2 323.5,268.2 324.6,268.3 325.6,268.4 326.6,268.5 327.6,268.6 328.6,268.8 329.7,268.9 330.7,269.1 331.7,269.3 332.7,269.5 333.7,269.8 334.8,270.0 335.8,270.3 336.8,270.6 337.8,270.9 338.8,271.2 339.9,271.5 340.9,271.9 341.9,272.2 342.9,272.6 343.9,272.9 345.0,273.3 346.0,273.6 347.0,274.0 348.0,274.4 349.0,274.7 350.1,275.1 351.1,275.4 352.1,275.8 353.1,276.1 354.1,276.5 355.2,276.8 356.2,277.1 357.2,277.4 358.2,277.7 359.2,278.0 360.3,278.2 361.3,278.5 362.3,278.7 363.3,278.9 364.3,279.1 365.4,279.2 366.4,279.4 367.4,279.5 368.4,279.6 369.4,279.7 370.5,279.8 371.5,279.8 372.5,279.8 373.5,279.8 374.5,279.8 375.6,279.7 376.6,279.6 377.6,279.5 378.6,279.4 379.6,279.2 380.7,279.1 381.7,278.9 382.7,278.7 383.7,278.5 384.7,278.2 385.8,278.0 386.8,277.7 387.8,277.4 388.8,277.1 389.8,276.8 390.9,276.5 391.9,276.1 392.9,275.8 393.9,275.4 394.9,275.1 396.0,274.7 397.0,274.4 398.0,274.0 399.0,273.6 400.0,273.3 401.1,272.9 402.1,272.6 403.1,272.2 404.1,271.9 405.1,271.5 406.2,271.2 407.2,270.9 408.2,270.6 409.2,270.3 410.2,270.0 411.3,269.8 412.3,269.5 413.3,269.3 414.3,269.1 415.3,268.9 416.4,268.8 417.4,268.6 418.4,268.5 419.4,268.4 420.4,268.3 421.5,268.2 422.5,268.2 423.5,268.2 424.5,268.2 425.5,268.2 426.6,268.3 427.6,268.4 428.6,268.5 429.6,268.6 430.6,268.8 431.7,268.9 432.7,269.1 433.7,269.3 434.7,269.5 435.7,269.8 436.8,270.0 437.8,270.3 438.8,270.6 439.8,270.9 440.8,271.2 441.9,271.5 442.9,271.9 443.9,272.2 444.9,272.6 445.9,272.9 447.0,273.3 448.0,273.6 449.0,274.0 450.0,274.4 451.0,274.7 452.1,275.1 453.1,275.4 454.1,275.8 455.1,276.1 456.1,276.5 457.2,276.8 458.2,277.1 459.2,277.4 460.2,277.7 461.2,278.0 462.3,278.2 463.3,278.5 464.3,278.7 465.3,278.9 466.3,279.1 467.4,279.2 468.4,279.4 469.4,279.5 470.4,279.6 471.4,279.7 472.5,279.8 473.5,279.8 474.5,279.8 475.5,279.8 476.5,279.8 477.6,279.7 478.6,279.6 479.6,279.5 480.6,279.4 481.6,279.2 482.7,279.1 483.7,278.9 484.7,278.7 485.7,278.5 486.7,278.2 487.8,278.0 488.8,277.7 489.8,277.4 490.8,277.1 491.8,276.8 492.9,276.5 493.9,276.1 494.9,275.8 495.9,275.4 496.9,275.1 498.0,274.7 499.0,274.4 500.0,274.0 501.0,273.6 502.0,273.3 503.1,272.9 504.1,272.6 505.1,272.2 506.1,271.9 507.1,271.5 508.2,271.2 509.2,270.9 510.2,270.6 511.2,270.3 512.2,270.0 513.3,269.8 514.3,269.5 515.3,269.3 516.3,269.1 517.3,268.9 518.4,268.8 519.4,268.6 520.4,268.5 521.4,268.4 522.4,268.3 523.5,268.2 524.5,268.2 525.5,268.2 526.5,268.2 527.5,268.2 528.6,268.3 529.6,268.4 530.6,268.5 531.6,268.6 532.6,268.8 533.7,268.9 534.7,269.1 535.7,269.3 536.7,269.5 537.7,269.8 538.8,270.0 539.8,270.3 540.8,270.6 541.8,270.9 542.8,271.2 543.9,271.5 544.9,271.9 545.9,272.2 546.9,272.6 547.9,272.9 549.0,273.3 550.0,273.6 551.0,274.0 552.0,274.4 553.0,274.7 554.1,275.1 555.1,275.4 556.1,275.8 557.1,276.1 558.1,276.5 559.2,276.8 560.2,277.1 561.2,277.4 562.2,277.7 563.2,278.0 564.3,278.2 565.3,278.5 566.3,278.7 567.3,278.9 568.3,279.1 569.4,279.2 570.4,279.4 571.4,279.5 572.4,279.6 573.4,279.7 574.5,279.8 575.5,279.8 576.5,279.8 577.5,279.8 578.5,279.8 579.6,279.7 580.6,279.6 581.6,279.5 582.6,279.4 583.6,279.2 584.7,279.1 585.7,278.9 586.7,278.7 587.7,278.5 588.7,278.2 589.8,278.0 590.8,277.7 591.8,277.4 592.8,277.1 593.8,276.8 594.9,276.5 595.9,276.1 596.9,275.8 597.9,275.4 598.9,275.1 600.0,274.7 601.0,274.4 602.0,274.0 603.0,273.6 604.0,273.3 605.1,272.9 606.1,272.6 607.1,272.2 608.1,271.9 609.1,271.5 610.2,271.2 611.2,270.9 612.2,270.6 613.2,270.3 614.2,270.0 615.3,269.8 616.3,269.5 617.3,269.3 618.3,269.1 619.3,268.9 620.4,268.8 621.4,268.6 622.4,268.5 623.4,268.4 624.4,268.3 625.5,268.2 626.5,268.2 627.5,268.2 628.5,268.2 629.5,268.2 630.6,268.3 631.6,268.4 632.6,268.5 633.6,268.6 634.6,268.8 635.7,268.9 636.7,269.1 637.7,269.3 638.7,269.5 639.7,269.8 640.8,270.0 641.8,270.3 642.8,270.6 643.8,270.9 644.8,271.2 645.9,271.5 646.9,271.9 647.9,272.2 648.9,272.6 649.9,272.9 651.0,273.3 652.0,273.6 653.0,274.0 654.0,274.4 655.0,274.7 656.1,275.1 657.1,275.4 658.1,275.8 659.1,276.1 660.1,276.5 661.2,276.8 662.2,277.1 663.2,277.4 664.2,277.7 665.2,278.0 666.3,278.2 667.3,278.5 668.3,278.7 669.3,278.9 670.3,279.1 671.4,279.2 672.4,279.4 673.4,279.5 674.4,279.6 675.4,279.7 676.5,279.8 677.5,279.8 678.5,279.8 679.5,279.8 680.5,279.8 681.6,279.7 682.6,279.6 683.6,279.5 684.6,279.4 685.6,279.2 686.7,279.1 687.7,278.9 688.7,278.7 689.7,278.5 690.7,278.2 691.8,278.0 692.8,277.7 693.8,277.4 694.8,277.1 695.8,276.8 696.9,276.5 697.9,276.1 698.9,275.8 699.9,275.4 700.9,275.1 702.0,274.7 703.0,274.4 704.0,274.0 705.0,273.6 706.0,273.3 707.1,272.9 708.1,272.6 709.1,272.2 710.1,271.9 711.1,271.5 712.2,271.2 713.2,270.9 714.2,270.6 715.2,270.3 716.2,270.0 717.3,269.8 718.3,269.5 719.3,269.3 720.3,269.1 721.3,268.9 722.4,268.8 723.4,268.6 724.4,268.5 725.4,268.4 726.4,268.3 727.5,268.2 728.5,268.2 729.5,268.2 730.5,268.2 731.5,268.2 732.6,268.3 733.6,268.4 734.6,268.5 735.6,268.6 736.6,268.8 737.7,268.9 738.7,269.1 739.7,269.3 740.7,269.5 741.7,269.8 742.8,270.0 743.8,270.3 744.8,270.6 745.8,270.9 746.8,271.2 747.9,271.5 748.9,271.9 749.9,272.2 750.9,272.6 751.9,272.9 753.0,273.3 754.0,273.6 755.0,274.0" fill="none" stroke="#ff5470" stroke-width="1.8" stroke-opacity="0.7" stroke-linecap="round" stroke-linejoin="round"/>
<polyline points="245.0,375.0 246.0,378.5 247.0,382.0 248.1,385.5 249.1,388.9 250.1,392.2 251.1,395.5 252.1,398.6 253.2,401.6 254.2,404.5 255.2,407.3 256.2,409.9 257.2,412.3 258.3,414.5 259.3,416.6 260.3,418.5 261.3,420.2 262.3,421.7 263.4,423.0 264.4,424.1 265.4,425.0 266.4,425.8 267.4,426.3 268.5,426.7 269.5,426.9 270.5,427.0 271.5,427.0 272.5,426.8 273.6,426.4 274.6,426.0 275.6,425.5 276.6,424.9 277.6,424.2 278.7,423.5 279.7,422.7 280.7,422.0 281.7,421.2 282.7,420.4 283.8,419.6 284.8,418.9 285.8,418.2 286.8,417.5 287.8,416.9 288.9,416.3 289.9,415.8 290.9,415.4 291.9,415.0 292.9,414.8 294.0,414.6 295.0,414.5 296.0,414.4 297.0,414.5 298.0,414.6 299.1,414.7 300.1,415.0 301.1,415.3 302.1,415.6 303.1,416.0 304.2,416.5 305.2,416.9 306.2,417.4 307.2,417.9 308.2,418.4 309.3,418.9 310.3,419.4 311.3,419.8 312.3,420.3 313.3,420.7 314.4,421.1 315.4,421.4 316.4,421.7 317.4,422.0 318.4,422.2 319.5,422.3 320.5,422.4 321.5,422.4 322.5,422.4 323.5,422.3 324.6,422.2 325.6,422.0 326.6,421.8 327.6,421.5 328.6,421.2 329.7,420.9 330.7,420.5 331.7,420.1 332.7,419.7 333.7,419.3 334.8,419.0 335.8,418.6 336.8,418.2 337.8,417.8 338.8,417.5 339.9,417.2 340.9,416.9 341.9,416.7 342.9,416.5 343.9,416.3 345.0,416.2 346.0,416.1 347.0,416.1 348.0,416.1 349.0,416.2 350.1,416.3 351.1,416.4 352.1,416.6 353.1,416.9 354.1,417.1 355.2,417.4 356.2,417.7 357.2,418.1 358.2,418.4 359.2,418.8 360.3,419.1 361.3,419.5 362.3,419.8 363.3,420.2 364.3,420.5 365.4,420.8 366.4,421.0 367.4,421.2 368.4,421.4 369.4,421.6 370.5,421.7 371.5,421.8 372.5,421.8 373.5,421.8 374.5,421.7 375.6,421.6 376.6,421.4 377.6,421.2 378.6,421.0 379.6,420.8 380.7,420.5 381.7,420.2 382.7,419.8 383.7,419.5 384.7,419.1 385.8,418.8 386.8,418.4 387.8,418.1 388.8,417.7 389.8,417.4 390.9,417.1 391.9,416.9 392.9,416.6 393.9,416.4 394.9,416.3 396.0,416.2 397.0,416.1 398.0,416.1 399.0,416.1 400.0,416.2 401.1,416.3 402.1,416.5 403.1,416.7 404.1,416.9 405.1,417.2 406.2,417.5 407.2,417.8 408.2,418.2 409.2,418.6 410.2,419.0 411.3,419.3 412.3,419.7 413.3,420.1 414.3,420.5 415.3,420.9 416.4,421.2 417.4,421.5 418.4,421.8 419.4,422.0 420.4,422.2 421.5,422.3 422.5,422.4 423.5,422.4 424.5,422.4 425.5,422.3 426.6,422.2 427.6,422.0 428.6,421.7 429.6,421.4 430.6,421.1 431.7,420.7 432.7,420.3 433.7,419.8 434.7,419.4 435.7,418.9 436.8,418.4 437.8,417.9 438.8,417.4 439.8,416.9 440.8,416.5 441.9,416.0 442.9,415.6 443.9,415.3 444.9,415.0 445.9,414.7 447.0,414.6 448.0,414.5 449.0,414.4 450.0,414.5 451.0,414.6 452.1,414.8 453.1,415.0 454.1,415.4 455.1,415.8 456.1,416.3 457.2,416.9 458.2,417.5 459.2,418.2 460.2,418.9 461.2,419.6 462.3,420.4 463.3,421.2 464.3,422.0 465.3,422.7 466.3,423.5 467.4,424.2 468.4,424.9 469.4,425.5 470.4,426.0 471.4,426.4 472.5,426.8 473.5,427.0 474.5,427.0 475.5,426.9 476.5,426.7 477.6,426.3 478.6,425.8 479.6,425.0 480.6,424.1 481.6,423.0 482.7,421.7 483.7,420.2 484.7,418.5 485.7,416.6 486.7,414.5 487.8,412.3 488.8,409.9 489.8,407.3 490.8,404.5 491.8,401.6 492.9,398.6 493.9,395.5 494.9,392.2 495.9,388.9 496.9,385.5 498.0,382.0 499.0,378.5 500.0,375.0 501.0,371.5 502.0,368.0 503.1,364.5 504.1,361.1 505.1,357.8 506.1,354.5 507.1,351.4 508.2,348.4 509.2,345.5 510.2,342.7 511.2,340.1 512.2,337.7 513.3,335.5 514.3,333.4 515.3,331.5 516.3,329.8 517.3,328.3 518.4,327.0 519.4,325.9 520.4,325.0 521.4,324.2 522.4,323.7 523.5,323.3 524.5,323.1 525.5,323.0 526.5,323.0 527.5,323.2 528.6,323.6 529.6,324.0 530.6,324.5 531.6,325.1 532.6,325.8 533.7,326.5 534.7,327.3 535.7,328.0 536.7,328.8 537.7,329.6 538.8,330.4 539.8,331.1 540.8,331.8 541.8,332.5 542.8,333.1 543.9,333.7 544.9,334.2 545.9,334.6 546.9,335.0 547.9,335.2 549.0,335.4 550.0,335.5 551.0,335.6 552.0,335.5 553.0,335.4 554.1,335.3 555.1,335.0 556.1,334.7 557.1,334.4 558.1,334.0 559.2,333.5 560.2,333.1 561.2,332.6 562.2,332.1 563.2,331.6 564.3,331.1 565.3,330.6 566.3,330.2 567.3,329.7 568.3,329.3 569.4,328.9 570.4,328.6 571.4,328.3 572.4,328.0 573.4,327.8 574.5,327.7 575.5,327.6 576.5,327.6 577.5,327.6 578.5,327.7 579.6,327.8 580.6,328.0 581.6,328.2 582.6,328.5 583.6,328.8 584.7,329.1 585.7,329.5 586.7,329.9 587.7,330.3 588.7,330.7 589.8,331.0 590.8,331.4 591.8,331.8 592.8,332.2 593.8,332.5 594.9,332.8 595.9,333.1 596.9,333.3 597.9,333.5 598.9,333.7 600.0,333.8 601.0,333.9 602.0,333.9 603.0,333.9 604.0,333.8 605.1,333.7 606.1,333.6 607.1,333.4 608.1,333.1 609.1,332.9 610.2,332.6 611.2,332.3 612.2,331.9 613.2,331.6 614.2,331.2 615.3,330.9 616.3,330.5 617.3,330.2 618.3,329.8 619.3,329.5 620.4,329.2 621.4,329.0 622.4,328.8 623.4,328.6 624.4,328.4 625.5,328.3 626.5,328.2 627.5,328.2 628.5,328.2 629.5,328.3 630.6,328.4 631.6,328.6 632.6,328.8 633.6,329.0 634.6,329.2 635.7,329.5 636.7,329.8 637.7,330.2 638.7,330.5 639.7,330.9 640.8,331.2 641.8,331.6 642.8,331.9 643.8,332.3 644.8,332.6 645.9,332.9 646.9,333.1 647.9,333.4 648.9,333.6 649.9,333.7 651.0,333.8 652.0,333.9 653.0,333.9 654.0,333.9 655.0,333.8 656.1,333.7 657.1,333.5 658.1,333.3 659.1,333.1 660.1,332.8 661.2,332.5 662.2,332.2 663.2,331.8 664.2,331.4 665.2,331.0 666.3,330.7 667.3,330.3 668.3,329.9 669.3,329.5 670.3,329.1 671.4,328.8 672.4,328.5 673.4,328.2 674.4,328.0 675.4,327.8 676.5,327.7 677.5,327.6 678.5,327.6 679.5,327.6 680.5,327.7 681.6,327.8 682.6,328.0 683.6,328.3 684.6,328.6 685.6,328.9 686.7,329.3 687.7,329.7 688.7,330.2 689.7,330.6 690.7,331.1 691.8,331.6 692.8,332.1 693.8,332.6 694.8,333.1 695.8,333.5 696.9,334.0 697.9,334.4 698.9,334.7 699.9,335.0 700.9,335.3 702.0,335.4 703.0,335.5 704.0,335.6 705.0,335.5 706.0,335.4 707.1,335.2 708.1,335.0 709.1,334.6 710.1,334.2 711.1,333.7 712.2,333.1 713.2,332.5 714.2,331.8 715.2,331.1 716.2,330.4 717.3,329.6 718.3,328.8 719.3,328.0 720.3,327.3 721.3,326.5 722.4,325.8 723.4,325.1 724.4,324.5 725.4,324.0 726.4,323.6 727.5,323.2 728.5,323.0 729.5,323.0 730.5,323.1 731.5,323.3 732.6,323.7 733.6,324.2 734.6,325.0 735.6,325.9 736.6,327.0 737.7,328.3 738.7,329.8 739.7,331.5 740.7,333.4 741.7,335.5 742.8,337.7 743.8,340.1 744.8,342.7 745.8,345.5 746.8,348.4 747.9,351.4 748.9,354.5 749.9,357.8 750.9,361.1 751.9,364.5 753.0,368.0 754.0,371.5 755.0,375.0" fill="none" stroke="#ffe0e6" stroke-width="2.5" stroke-opacity="1" stroke-linecap="round" stroke-linejoin="round"/>
</svg>
